<?xml version="1.0" encoding="utf-8"?>
<!-- Generator: Adobe Illustrator 21.0.0, SVG Export Plug-In . SVG Version: 6.00 Build 0)  -->
<svg version="1.1" id="Layer_1" xmlns="http://www.w3.org/2000/svg" xmlns:xlink="http://www.w3.org/1999/xlink" x="0px" y="0px"
	 viewBox="0 0 60 60" style="enable-background:new 0 0 60 60;" xml:space="preserve">
<style type="text/css">
	.st0{fill:#FDB529;}
</style>
<path class="st0" d="M30.1,60C13.3,60-0.1,46.6,0,29.8C0.1,13.3,13.5,0,30.1,0c16.5,0,30,13.5,29.9,30.1
	C59.9,46.5,46.7,59.9,30.1,60z M29.6,57.3c15.2,0.2,27.5-11.9,27.8-26.7c0.3-15.5-12.1-27.8-27.1-28C15.1,2.5,2.8,14.7,2.6,29.7
	C2.5,44.9,14.7,57.2,29.6,57.3z"/>
<path class="st0" d="M27.9,34.9c0-1.1,0-2.2,0-3.3c0-0.3,0-0.4,0.4-0.4c1.4,0,2.8,0,4.2,0c0.9,0,1.8,0.2,2.6,0.5
	c1.7,0.6,2.3,1.8,2,3.6c-0.3,1.7-1.5,2.7-3.4,3.1c-1,0.2-2.1,0.2-3.1,0.2c-0.8,0-1.5,0-2.3,0c-0.3,0-0.4-0.1-0.4-0.4
	C27.9,37.1,27.9,36,27.9,34.9z"/>
<path class="st0" d="M27.9,24.5c0-1,0-2,0-3c0-0.2,0.1-0.3,0.3-0.3c1.2,0,2.4-0.1,3.6,0.1c0.8,0.1,1.6,0.3,2.3,0.7
	c1,0.6,1.4,1.5,1.4,2.6c-0.1,1.8-1.1,3-2.8,3.4c-0.1,0-0.2,0-0.3,0c-1.4,0-2.8,0-4.1,0c-0.2,0-0.3-0.1-0.3-0.3
	C27.9,26.6,27.9,25.5,27.9,24.5z"/>
<path class="st0" d="M51.5,29.9c0,12.5-10.3,22-22.3,21.6c-11.9-0.4-21-10.2-20.8-22C8.7,17.4,18.8,8,31,8.5
	C42.7,9,51.5,18.7,51.5,29.9z M39,28.7c0.5-0.3,1-0.7,1.5-1.2c1.8-1.9,2.2-6-0.9-8c-1.7-1.1-3.6-1.6-5.6-1.8c-0.3,0-0.4-0.1-0.4-0.5
	c0-1.6,0-3.2,0-4.7c0-0.3-0.1-0.3-0.3-0.3c-0.8,0-1.7,0-2.5,0c-0.3,0-0.4,0.1-0.4,0.4c0,1.5,0,3.1,0,4.6c0,0.3-0.1,0.4-0.4,0.4
	c-0.5,0-1.1,0-1.6,0c-0.3,0-0.4-0.1-0.4-0.4c0-1.6,0-3.1,0-4.7c0-0.2-0.1-0.3-0.3-0.3c-0.9,0-1.7,0-2.6,0c-0.3,0-0.4,0.1-0.4,0.4
	c0,1.5,0,3.1,0,4.6c0,0.4,0,0.4-0.4,0.4c-2,0-4,0-5.9,0c-0.3,0-0.4,0-0.4,0.4c0,0.9,0,1.8,0,2.6c0,0.3,0.1,0.4,0.4,0.4
	c0.9,0,1.7,0,2.6,0s1.3,0.5,1.3,1.4c0,4.9,0,9.8,0,14.8c0,0.1,0,0.3,0,0.4c-0.1,1-0.6,1.4-1.5,1.4c-0.6,0-1.3,0-1.9,0
	s-0.5,0-0.5,0.4c0,0.9,0,1.7-0.1,2.6c0,0.3,0.1,0.4,0.4,0.4c1.9,0,3.8,0,5.7,0c0.5,0,0.5,0,0.5,0.5c0,1.6,0,3.1,0,4.7
	c0,0.3,0.1,0.4,0.3,0.4c0.8,0,1.7,0,2.5,0c0.3,0,0.4-0.1,0.4-0.4c0-1.6,0-3.2,0-4.8c0-0.2,0.1-0.3,0.3-0.3c0.6,0,1.2,0,1.7,0
	c0.3,0,0.4,0.1,0.4,0.4c0,1.6,0,3.2,0,4.8c0,0.3,0.1,0.3,0.3,0.3c0.8,0,1.7,0,2.5,0c0.3,0,0.4-0.1,0.4-0.4c0-1.5,0-3.1,0-4.6
	c0-0.5,0-0.5,0.5-0.5c1.5,0,3-0.1,4.4-0.5c1.5-0.5,2.8-1.3,3.8-2.6c0.8-1.1,1.1-2.4,1.2-3.7c0.1-1,0.1-2.1-0.3-3.1
	c-0.7-1.8-2.1-2.9-3.9-3.6C39.2,28.8,39.1,28.8,39,28.7z"/>
</svg>
