<?xml version="1.0" encoding="utf-8"?>
<!-- Generator: Adobe Illustrator 21.0.0, SVG Export Plug-In . SVG Version: 6.00 Build 0)  -->
<svg version="1.1" id="Layer_1" xmlns="http://www.w3.org/2000/svg" xmlns:xlink="http://www.w3.org/1999/xlink" x="0px" y="0px"
	 viewBox="0 0 256 256" style="enable-background:new 0 0 256 256;" xml:space="preserve">
<style type="text/css">
	.st0{fill:#45ACFF;}
	.st1{fill:#3BA5FF;}
	.st2{fill:#209BFF;}
	.st3{fill:#FFFFFF;}
</style>
<g>
	<path class="st0" d="M173.7,109c-5.3-1.2-10.5-2.6-15.8-3.9c-1-0.2-1.5-0.6-1.9-1.6c-1-2.6-2.2-5.2-3.2-7.8
		c-0.2-0.6-0.2-1.6,0.1-2.1c2.4-4.2,4.9-8.3,7.4-12.4c1.8-3,1.6-4.9-0.9-7.4c-4-4-7.9-7.9-11.9-11.9c-2.4-2.4-4.3-2.7-7.3-0.9
		c-4.1,2.5-8.3,4.9-12.4,7.4c-0.8,0.5-1.5,0.5-2.3,0.1c-2.5-1.1-5-2.2-7.5-3.1c-1-0.4-1.5-0.9-1.7-1.9c-1.2-5.2-2.6-10.4-3.8-15.7
		c-0.5-2.4-1.6-4.1-4-4.9c-6.9,0-13.8,0-20.7,0c-2.3,0.8-3.4,2.5-3.9,4.8c-1.2,5.3-2.6,10.5-3.8,15.8c-0.2,1.1-0.8,1.5-1.7,1.9
		c-2.7,1.1-5.4,2.2-8.1,3.4c-0.9,0.4-1.6,0.4-2.4-0.1c-4.2-2.6-8.5-5.1-12.8-7.7c-3.1-1.8-4.9-1.6-7.4,0.9c-4,3.9-7.9,7.9-11.9,11.9
		c-2.4,2.4-2.7,4.4-0.9,7.3c2.7,4.5,5.3,9,8.1,13.4c0.5,0.8,0.5,1.4,0.1,2.3c-1,2.2-1.9,4.4-2.7,6.7c-0.3,1-0.9,1.4-1.9,1.6
		c-5.3,1.3-10.5,2.6-15.8,3.9c-2.3,0.5-4,1.7-4.8,3.9c0,6.9,0,13.8,0,20.7c0.8,2.3,2.5,3.4,4.8,3.9c5.3,1.2,10.5,2.6,15.8,3.9
		c1.1,0.2,1.5,0.8,1.9,1.7c1,2.6,2.1,5.1,3.2,7.6c0.4,0.9,0.4,1.6-0.1,2.4c-2.4,3.9-4.7,7.8-7,11.7c-1.8,2.9-1.5,4.9,0.9,7.3
		c4,4,8,8,12,12c2.3,2.3,4.3,2.6,7.2,0.9c3.9-2.3,7.8-4.6,11.7-7c0.9-0.6,1.6-0.5,2.6-0.1c2.5,1.1,5,2.2,7.5,3.1
		c1.1,0.4,1.5,1,1.8,2.1c1.2,5.2,2.6,10.4,3.8,15.7c0.5,2.3,1.7,4,3.9,4.8c6.9,0,13.8,0,20.7,0c2.3-0.8,3.4-2.5,3.9-4.8
		c1.2-5.3,2.6-10.5,3.9-15.8c0.2-1,0.6-1.5,1.6-1.9c2.7-1.1,5.4-2.2,8.1-3.4c0.9-0.4,1.5-0.4,2.3,0.1c4,2.4,8,4.8,12,7.2
		c2.9,1.8,4.9,1.5,7.3-0.9c4-4,8-8,12-12c2.4-2.4,2.6-4.3,0.9-7.2c-2.4-4.1-4.9-8.2-7.3-12.2c-0.5-0.8-0.5-1.4-0.2-2.3
		c1.1-2.5,2.2-5,3.1-7.5c0.4-1,0.9-1.4,1.9-1.6c5.3-1.3,10.5-2.6,15.8-3.9c2.3-0.5,4-1.7,4.8-3.9c0-6.9,0-13.8,0-20.7
		C177.7,110.7,176,109.6,173.7,109z"/>
	<path class="st1" d="M96.9,124.2L42,67.6c-2.1,2.1-4.2,4.2-6.3,6.3c-2.4,2.4-2.7,4.4-0.9,7.3c2.7,4.5,5.3,9,8.1,13.4
		c0.5,0.8,0.5,1.4,0.1,2.3c-1,2.2-1.9,4.4-2.7,6.7c-0.3,1-0.9,1.4-1.9,1.6c-5.3,1.3-10.5,2.6-15.8,3.9c-2.3,0.5-4,1.7-4.8,3.9
		c0,6.9,0,13.8,0,20.7c0.8,2.3,2.5,3.4,4.8,3.9c5.3,1.2,10.5,2.6,15.8,3.9c1.1,0.2,1.5,0.8,1.9,1.7c1,2.6,2.1,5.1,3.2,7.6
		c0.4,0.9,0.4,1.6-0.1,2.4c-2.4,3.9-4.7,7.8-7,11.7c-1.8,2.9-1.5,4.9,0.9,7.3c4,4,8,8,12,12c2.3,2.3,4.3,2.6,7.2,0.9
		c3.9-2.3,7.8-4.6,11.7-7c0.9-0.6,1.6-0.5,2.6-0.1c2.5,1.1,5,2.2,7.5,3.1c1.1,0.4,1.5,1,1.8,2.1c0.8,3.2,1.6,6.4,2.3,9.6l16.2-26.4
		L96.9,124.2z"/>
	<path class="st2" d="M156,143.1c0.4-1,0.9-1.4,1.9-1.6c5.3-1.3,10.5-2.6,15.8-3.9c2.3-0.5,4-1.7,4.8-3.9c0-6.9,0-13.8,0-20.7
		c-0.8-2.3-2.5-3.4-4.8-3.9c-5.3-1.2-10.5-2.6-15.8-3.9c-1-0.2-1.5-0.6-1.9-1.6c-1-2.6-2.2-5.2-3.2-7.8c-0.2-0.6-0.2-1.6,0.1-2.1
		c2.4-4.2,4.9-8.3,7.4-12.4c1.8-3,1.6-4.9-0.9-7.4c-2-2-3.9-3.9-5.9-5.9L42.9,177.9c2.1,2.1,4.3,4.3,6.4,6.4
		c2.3,2.3,4.3,2.6,7.2,0.9c3.9-2.3,7.8-4.6,11.7-7c0.9-0.6,1.6-0.5,2.6-0.1c2.5,1.1,5,2.2,7.5,3.1c1.1,0.4,1.5,1,1.8,2.1
		c1.2,5.2,2.6,10.4,3.8,15.7c0.5,2.3,1.7,4,3.9,4.8c6.9,0,13.8,0,20.7,0c2.3-0.8,3.4-2.5,3.9-4.8c1.2-5.3,2.6-10.5,3.9-15.8
		c0.2-1,0.6-1.5,1.6-1.9c2.7-1.1,5.4-2.2,8.1-3.4c0.9-0.4,1.5-0.4,2.3,0.1c4,2.4,8,4.8,12,7.2c2.9,1.8,4.9,1.5,7.3-0.9
		c4-4,8-8,12-12c2.4-2.4,2.6-4.3,0.9-7.2c-2.4-4.1-4.9-8.2-7.3-12.2c-0.5-0.8-0.5-1.4-0.2-2.3C154,148.1,155,145.6,156,143.1z"/>
</g>
<path class="st2" d="M238.8,180.6l-9.2-6.4c0-1.2,0.4-2.4,0.4-4c0-1.6,0-2.8-0.4-4l8.4-6.8c0.8-0.8,0.8-1.6,0.4-2.4l-8-14
	c-0.4-0.4-1.2-0.8-2.4-0.4l-10,4c-2-1.6-4.4-2.8-6.8-4l-1.6-10.4c0.4-1.2-0.8-2-1.6-2h-15.9c-0.8,0-2,0.8-2,1.6l-1.6,10.8
	c-2.4,0.8-4.4,2.4-6.8,4l-9.6-4c-1.2-0.4-2,0-2.8,0.8l-8,14c-0.4,0.4,0,1.6,0.8,2.4l8.4,6.4c0,1.2-0.4,2.4-0.4,4c0,1.6,0,2.8,0.4,4
	l-8.4,6.8c-0.8,0.8-0.8,1.6-0.4,2.4l8,14c0.4,0.4,1.2,0.8,2.4,0.4l10-4c2,1.6,4.4,2.8,6.8,4l1.6,10.4c0,0.8,0.8,1.6,2,1.6h16
	c0.8,0,2-0.8,2-1.6l1.6-10.4c2.4-1.2,4.8-2.4,6.8-4l10,4c0.8,0.4,2,0,2.4-0.8l8-14C239.6,182.2,239.6,181,238.8,180.6z M200,185
	c-8.3,0-15-6.7-15-15c0-8.3,6.7-15,15-15s15,6.7,15,15C215,178.3,208.3,185,200,185z"/>
<g>
	<path class="st3" d="M74.4,101.3V90.7c-4.3,2.9-7.9,6.5-10.6,10.6H74.4z"/>
	<path class="st3" d="M56.8,123.8v0.2c0,22.1,18,40,40,40c22.2,0,40.2-18,40.2-40.2c0-22.1-18-40-40.2-40c-2.6,0-5,0.2-7.4,0.7v10.3
		c2.4-0.7,4.8-1,7.4-1c16.8,0,30.1,13.5,30.1,30.1s-13.3,30.1-30.1,30.1c-16.6,0-29.9-13.5-29.9-30.1c0-2.7-2.4-5-5.1-5
		C59,118.9,56.8,121.1,56.8,123.8z"/>
	<path class="st3" d="M76.8,123.9c0,11.1,9.1,20,20,20c11.1,0,20.2-8.9,20.2-20s-9.1-20-20.2-20H66.9l5,10.1h25
		c5.6,0,10.1,4.4,10.1,9.9c0,5.6-4.4,10.1-10.1,10.1c-5.5,0-9.9-4.4-9.9-10.1v-7.5H76.8V123.9z"/>
	<path class="st3" d="M86.9,83.9c0-2.7-2.3-4.9-5-4.9c-2.8,0-5,2.2-5,4.9c0,0,0,17.5,0,17.5h10.1C86.9,101.3,86.9,83.9,86.9,83.9z"
		/>
</g>
</svg>
