<?xml version="1.0" encoding="utf-8"?>
<!-- Generator: Adobe Illustrator 21.0.0, SVG Export Plug-In . SVG Version: 6.00 Build 0)  -->
<svg version="1.1" id="Layer_1" xmlns="http://www.w3.org/2000/svg" xmlns:xlink="http://www.w3.org/1999/xlink" x="0px" y="0px"
	 viewBox="0 0 256 256" style="enable-background:new 0 0 256 256;" xml:space="preserve">
<style type="text/css">
	.st0{fill:#45ACFF;}
	.st1{fill:#3BA5FF;}
	.st2{fill:#209BFF;}
	.st3{fill:#FFFFFF;}
</style>
<path class="st0" d="M45.4,70.9c0.5,10.8,2.6,35.6,10.8,62c13.9,45.1,38,73.8,71.7,85.2c33.8-11.5,57.9-40.3,71.8-85.5
	c8.1-26.4,10.2-51,10.7-61.7c-14.5-2.1-52.2-9.2-82.5-29.4C97.6,61.7,59.9,68.8,45.4,70.9L45.4,70.9z M45.4,70.9"/>
<path class="st1" d="M98.8,202.2l24.5-4l4.9-67.1L45.9,70.9h-0.5c0.5,10.8,2.6,35.6,10.8,62C65.7,163.8,80,187,98.8,202.2z"/>
<path class="st2" d="M127.9,218.2c33.8-11.5,57.9-40.3,71.8-85.5c8.1-26.4,10.2-51,10.7-61.7L72.6,171.2
	C86.5,194.6,105,210.4,127.9,218.2z"/>
<g>
	<path class="st3" d="M104.3,107.3V96.4c-4.4,3-8.1,6.7-10.9,10.9H104.3z"/>
	<path class="st3" d="M86.1,130.5v0.2c0,22.7,18.5,41.2,41.2,41.2c22.9,0,41.4-18.5,41.4-41.4c0-22.7-18.5-41.2-41.4-41.2
		c-2.6,0-5.1,0.2-7.6,0.7v10.6c2.5-0.7,4.9-1.1,7.6-1.1c17.3,0,31,13.9,31,31s-13.7,31-31,31c-17.1,0-30.8-13.9-30.8-31
		c0-2.8-2.5-5.1-5.3-5.1S86.1,127.7,86.1,130.5z"/>
	<path class="st3" d="M106.7,130.6c0,11.5,9.3,20.6,20.6,20.6c11.5,0,20.8-9.2,20.8-20.6s-9.3-20.6-20.8-20.6H96.5l5.1,10.4h25.7
		c5.8,0,10.4,4.6,10.4,10.2c0,5.8-4.6,10.4-10.4,10.4c-5.6,0-10.2-4.6-10.2-10.4v-7.8h-10.4V130.6z"/>
	<path class="st3" d="M117.1,89.3c0-2.8-2.3-5.1-5.2-5.1c-2.9,0-5.2,2.3-5.2,5.1c0,0,0,18,0,18h10.4
		C117.1,107.3,117.1,89.4,117.1,89.3z"/>
</g>
</svg>
