<?xml version="1.0" encoding="utf-8"?>
<!-- Generator: Adobe Illustrator 21.0.0, SVG Export Plug-In . SVG Version: 6.00 Build 0)  -->
<svg version="1.1" id="Layer_1" xmlns="http://www.w3.org/2000/svg" xmlns:xlink="http://www.w3.org/1999/xlink" x="0px" y="0px"
	 viewBox="0 0 256 256" style="enable-background:new 0 0 256 256;" xml:space="preserve">
<style type="text/css">
	.st0{fill:#209BFF;}
	.st1{fill:#45ACFF;}
	.st2{fill:#2CA0FF;}
	.st3{fill:#FFFFFF;}
</style>
<polygon class="st0" points="175.3,57 35.6,70.6 35.6,75.9 175.3,75.9 "/>
<rect x="35.6" y="70.6" class="st1" width="164.3" height="128.9"/>
<polygon class="st2" points="116.1,199.4 117.8,135 35.6,70.6 35.6,199.4 "/>
<polygon class="st0" points="199.9,70.6 35.6,199.4 199.9,199.4 "/>
<g>
	<path class="st3" d="M78.5,113.8v-10.6c-4.3,2.9-7.9,6.5-10.6,10.6H78.5z"/>
	<path class="st3" d="M60.9,136.3v0.2c0,22.1,18,40,40,40c22.2,0,40.2-18,40.2-40.2c0-22.1-18-40-40.2-40c-2.6,0-5,0.2-7.4,0.7v10.3
		c2.4-0.7,4.8-1,7.4-1c16.8,0,30.1,13.5,30.1,30.1c0,16.6-13.3,30.1-30.1,30.1c-16.6,0-29.9-13.5-29.9-30.1c0-2.7-2.4-5-5.1-5
		C63.1,131.3,60.9,133.5,60.9,136.3z"/>
	<path class="st3" d="M80.9,136.3c0,11.1,9.1,20,20,20c11.1,0,20.2-8.9,20.2-20c0-11.1-9.1-20-20.2-20H71l5,10.1h25
		c5.6,0,10.1,4.4,10.1,9.9c0,5.6-4.4,10.1-10.1,10.1c-5.5,0-9.9-4.4-9.9-10.1v-7.5H80.9V136.3z"/>
	<path class="st3" d="M91,96.3c0-2.7-2.3-4.9-5-4.9c-2.8,0-5,2.2-5,4.9c0,0,0,17.5,0,17.5H91C91,113.8,91,96.3,91,96.3z"/>
</g>
<rect x="162.4" y="117.2" class="st1" width="52.4" height="35.1"/>
</svg>
